<?xml version="1.0" encoding="UTF-8" standalone="no"?>
<!DOCTYPE svg PUBLIC "-//W3C//DTD SVG 1.1//EN" "http://www.w3.org/Graphics/SVG/1.1/DTD/svg11.dtd">
<svg width="100%" height="100%" viewBox="0 0 1000 1500" version="1.1" xmlns="http://www.w3.org/2000/svg" xmlns:xlink="http://www.w3.org/1999/xlink" xml:space="preserve" xmlns:serif="http://www.serif.com/" style="fill-rule:evenodd;clip-rule:evenodd;stroke-linejoin:round;stroke-miterlimit:2;">
    <g transform="matrix(1.30955,0,0,1.30955,-1244.48,-946.104)">
        <path d="M1332.12,734.283C1332.12,734.283 1693.14,1266.82 1693.14,1495.06C1693.14,1694.31 1531.37,1856.08 1332.12,1856.08C1132.87,1856.08 971.096,1694.31 971.096,1495.06C971.096,1266.82 1332.12,734.283 1332.12,734.283ZM1432.58,1295.18L1332.12,1395.64L1231.66,1295.18L1157.59,1369.26L1258.04,1469.71L1157.59,1570.17L1231.66,1644.25L1332.12,1543.79L1432.58,1644.25L1506.65,1570.17L1406.19,1469.71L1506.65,1369.26L1432.58,1295.18Z" style="fill:white;"/>
    </g>
</svg>
