<?xml version="1.0" standalone="no"?>
<!DOCTYPE svg PUBLIC "-//W3C//DTD SVG 20010904//EN"
 "http://www.w3.org/TR/2001/REC-SVG-20010904/DTD/svg10.dtd">
<svg version="1.0" xmlns="http://www.w3.org/2000/svg"
 width="260.000000pt" height="260.000000pt" viewBox="0 0 260.000000 260.000000"
 preserveAspectRatio="xMidYMid meet">
<metadata>
Created by potrace 1.14, written by Peter Selinger 2001-2017
</metadata>
<g transform="translate(0.000000,260.000000) scale(0.100000,-0.100000)"
fill="#000000" stroke="none">
<path d="M1263 2543 c-507 -799 -758 -1316 -792 -1634 -31 -288 110 -592 352
-758 68 -46 199 -105 282 -127 96 -25 294 -25 390 0 152 39 316 135 412 239
166 182 247 417 222 646 -30 276 -254 765 -632 1381 -98 159 -187 294 -196
298 -4 1 -21 -19 -38 -45z m155 -1360 l117 117 85 -85 85 -85 -113 -113 c-61
-62 -112 -117 -112 -122 0 -5 51 -60 112 -122 l113 -113 -85 -85 -85 -85 -117
117 -118 118 -118 -118 -117 -117 -85 85 -85 85 113 113 c61 62 112 117 112
122 0 5 -51 60 -112 122 l-113 113 85 85 85 85 117 -117 118 -118 118 118z"/>
</g>
</svg>
